<svg xmlns="http://www.w3.org/2000/svg" viewBox="0 0 24 24" width="24" height="24"><path d="M5 14 Q5 8 12 6 Q19 8 19 14 Q18 20 12 21 Q6 20 5 14 Z" fill="#cc3300"/><path d="M5 10 Q1 6 2 12 Q3 15 6 13 Z" fill="#aa2200"/><path d="M19 10 Q23 6 22 12 Q21 15 18 13 Z" fill="#aa2200"/><circle cx="12" cy="7" r="4" fill="#dd3300"/><circle cx="10" cy="6" r="1.5" fill="#ffcc00"/><circle cx="10" cy="6" r="0.8" fill="#111"/><path d="M14 7 Q17 6 18 9 Q17 11 15 9 Z" fill="#ff6600"/><polygon points="8,7 9,4 10,7" fill="#aa2200"/><polygon points="12,5 13,2 14,5" fill="#aa2200"/></svg>