<svg xmlns="http://www.w3.org/2000/svg" viewBox="0 0 24 24" width="24" height="24"><path d="M7 10 Q7 6 12 5 Q17 6 17 10 L18 22 H6 Z" fill="#1a1a2a"/><path d="M7 6 Q7 2 12 2 Q17 2 17 6 L17 10 Q14 12 12 12 Q10 12 7 10 Z" fill="#252535"/><rect x="8" y="7" width="8" height="2" fill="#000000"/><line x1="12" y1="7" x2="12" y2="9" stroke="#660066" stroke-width="1"/><line x1="18" y1="8" x2="24" y2="2" stroke="#e8e8e8" stroke-width="2"/><rect x="17" y="8" width="3" height="1.5" fill="#888888"/><path d="M7 10 Q4 14 5 22 H6 Z" fill="#330033"/><path d="M17 10 Q20 14 19 22 H18 Z" fill="#330033"/></svg>