<svg xmlns="http://www.w3.org/2000/svg" viewBox="0 0 24 24" width="24" height="24"><path d="M5 14 Q5 10 12 9 Q19 10 19 14 Q19 18 12 19 Q5 18 5 14 Z" fill="#775533"/><line x1="8" y1="9" x2="8" y2="19" stroke="#665522" stroke-width="1"/><line x1="12" y1="9" x2="12" y2="19" stroke="#665522" stroke-width="1"/><line x1="16" y1="9" x2="16" y2="19" stroke="#665522" stroke-width="1"/><line x1="5" y1="11" x2="1" y2="9" stroke="#775533" stroke-width="1"/><line x1="5" y1="13" x2="1" y2="11" stroke="#775533" stroke-width="1"/><line x1="5" y1="15" x2="1" y2="13" stroke="#775533" stroke-width="1"/><line x1="5" y1="17" x2="1" y2="15" stroke="#775533" stroke-width="1"/><line x1="19" y1="11" x2="23" y2="9" stroke="#775533" stroke-width="1"/><line x1="19" y1="13" x2="23" y2="11" stroke="#775533" stroke-width="1"/><line x1="19" y1="15" x2="23" y2="13" stroke="#775533" stroke-width="1"/><line x1="19" y1="17" x2="23" y2="15" stroke="#775533" stroke-width="1"/><circle cx="8" cy="12" r="1" fill="#221100"/><circle cx="16" cy="12" r="1" fill="#221100"/></svg>