<svg xmlns="http://www.w3.org/2000/svg" viewBox="0 0 24 24" width="24" height="24"><path d="M6 10 Q6 6 12 5 Q18 6 18 10 L18 18 Q18 21 12 22 Q6 21 6 18 Z" fill="#221133"/><polygon points="6,10 4,5 8,8" fill="#221133"/><polygon points="18,10 20,5 16,8" fill="#221133"/><circle cx="9" cy="12" r="1.5" fill="#cc44ff"/><circle cx="15" cy="12" r="1.5" fill="#cc44ff"/><path d="M18 18 Q22 16 22 12 Q22 9 20 9" fill="none"/><path d="M18 18 Q22 16 22 12 Q22 9 20 9" fill="none" stroke="#221133" stroke-width="2" stroke-linecap="round"/></svg>